<?xml version="1.0" standalone="no"?><!DOCTYPE svg PUBLIC "-//W3C//DTD SVG 1.1//EN" "http://www.w3.org/Graphics/SVG/1.1/DTD/svg11.dtd"><svg t="1610104141695" class="icon" viewBox="0 0 1024 1024" version="1.1" xmlns="http://www.w3.org/2000/svg" p-id="1277" xmlns:xlink="http://www.w3.org/1999/xlink" width="128" height="128"><defs><style type="text/css"></style></defs><path d="M498.38 38.155c1.497 0 3.352-0.747 5.624-2.213 4.488-3.046 10.526-8.278 18.006-15.753 9.002-8.222 17.973-14.263 26.95-17.997 9.002-3.798 21.028-2.632 35.98 3.378 7.537 2.21 13.49 5.38 18.005 9.508 4.514 4.123 8.824 8.069 12.981 11.835 4.1 3.677 8.583 6.876 13.492 9.508 4.845 2.632 11.037 3.919 18.51 3.919 7.542 0 13.911-1.108 19.115-3.32a398.877 398.877 0 0 1 15.193-6.188c4.904-1.887 9.75-3.2 14.659-3.919 4.846-0.804 10.674 0 17.405 2.217 7.538 2.99 12.561 7.291 15.194 12.912 2.633 5.62 3.38 11.451 2.214 17.461-1.109 5.947-3.737 11.957-7.836 17.935-4.158 6.073-9.245 10.852-15.194 14.65-14.27 9-25.127 18.146-32.601 27.565-7.536 9.355-15.015 19.283-22.493 29.774-3.801 5.263-7.895 11.215-12.384 17.997-4.487 6.73-8.644 13.485-12.382 20.214a258.396 258.396 0 0 1-14.594 23.644H381.432a798.718 798.718 0 0 0-15.762-25.86c-4.514-7.534-9.391-15.003-14.626-22.479-5.266-7.533-9.75-14.263-13.49-20.208-7.506-11.274-15.942-21.197-25.333-29.839-9.392-8.641-18.541-16.295-27.545-23.051-9.722-6.724-16.481-15.874-20.25-27.563-3.742-11.567-0.389-21.496 10.14-29.774 5.233-3.678 11.213-5.206 18.004-4.429 6.732 0.75 13.88 2.217 21.353 4.429 7.51 2.268 14.81 4.544 21.927 6.787 7.116 2.269 13.67 2.626 19.682 1.103 10.496-2.212 18.364-6.131 23.598-11.809 5.266-5.621 14.27-12.555 26.977-20.777 9.754-6.009 20.607-8.073 32.632-6.188 12.026 1.88 20.996 5.831 26.983 11.809 3.016 3.798 6.19 6.934 9.57 9.566 3.347 2.57 6.906 5.08 10.648 7.297a73.892 73.892 0 0 0 12.44 7.859z m127.06 224.787c9.002 11.962 20.276 25.115 33.766 39.346 11.216 12.734 25.122 27.144 41.604 43.26 16.481 16.112 35.623 33.152 57.37 51.15 18.006 15.696 36.579 34.261 55.662 55.636 19.083 21.376 35.801 46.312 50.065 74.742 14.21 28.488 24.202 61.257 29.794 98.33 5.624 37.128 4.667 78.533-2.812 124.246-6.79 37.486-20.102 72.883-39.958 106.22-19.86 33.394-46.27 62.423-79.265 87.118-33.021 24.752-72.202 44.425-117.547 59.04-45.34 14.619-96.844 21.885-154.604 21.885-59.22 0-111.682-8.4-157.443-25.29-45.765-16.893-84.525-38.778-116.443-65.743-31.822-26.963-57.123-57.16-75.88-90.496-18.751-33.331-31.135-66.516-37.088-99.494-6.79-36.74-7.716-71.926-2.839-105.62 4.872-33.752 13.67-65.413 26.442-95.01 12.738-29.595 28.68-56.77 47.794-81.529 19.141-24.689 39.958-46.815 62.421-66.278 19.471-17.277 37.12-33.573 52.85-48.938 15.762-15.366 28.864-29.418 39.365-42.152 12.739-14.205 24.017-27.747 33.766-40.481h252.98v0.058z m-119.161 345.18l-54.05-54.024c-7.477-7.469-12.743-13.09-15.703-16.857-5.98-5.206-13.88-9.566-23.598-12.917-9.749-3.378-18.004-1.345-24.764 6.188-5.955 8.22-7.478 16.295-4.488 24.186 3.022 7.895 6.37 14.083 10.138 18.506l16.84 15.754c8.256 9 17.258 18.75 26.982 29.271 11.273 11.956 23.655 24.695 37.115 38.174l-1.135 23.588h-76.48c-6.733 0-12.561 2.632-17.406 7.895-4.91 5.264-7.3 10.853-7.3 16.863 0 6.008 2.211 11.21 6.732 15.691 4.514 4.486 10.527 6.787 18.006 6.787h76.478v39.345h-76.478c-6.733 0-12.566 2.034-17.413 6.126-4.902 4.155-7.295 9.57-7.295 16.353-0.745 5.952 1.288 11.031 6.192 15.187 4.845 4.097 11.037 6.194 18.516 6.194h76.478v22.42c0.747 10.522 4.158 17.818 10.138 21.942 5.982 4.124 13.492 6.188 22.522 6.188 9.002 0.688 16.302-2.032 21.926-8.4 5.592-6.43 8.435-12.975 8.435-19.73v-22.42h78.691c7.48 0 13.671-1.708 18.574-5.086 4.846-3.377 6.88-8.82 6.134-16.295 0-15.755-10.47-23.645-31.497-23.645h-71.902l1.103-38.179 73.07-1.167c10.531 0.81 18.01-1.282 22.493-6.124 4.489-4.907 6.733-10.675 6.733-17.463 0-5.946-2.398-11.45-7.3-16.29-4.847-4.843-12.561-7.296-23.03-7.296h-73.07v-21.375c12.683-11.962 24.318-23.586 34.814-34.802 9.003-9 18.006-18.202 26.977-27.563 9.002-9.388 15.767-15.933 20.281-19.668 17.229-14.951 20.965-28.073 11.216-39.346-5.203-6.724-11.963-10.102-20.218-10.102-8.257 0-15.762 3.047-22.494 9-3.737 3.045-10.107 8.399-19.173 16.289-9.002 7.895-18.006 15.937-26.977 24.185-10.5 9.719-22.073 20.571-34.813 32.617z" fill="#FEB315" p-id="1278"></path></svg>