<?xml version="1.0" standalone="no"?><!DOCTYPE svg PUBLIC "-//W3C//DTD SVG 1.1//EN" "http://www.w3.org/Graphics/SVG/1.1/DTD/svg11.dtd"><svg t="1610104132087" class="icon" viewBox="0 0 1024 1024" version="1.1" xmlns="http://www.w3.org/2000/svg" p-id="953" width="128" height="128" xmlns:xlink="http://www.w3.org/1999/xlink"><defs><style type="text/css"></style></defs><path d="M251.2 577.4c-5.9 2.5-9.8 8.2-9.8 14.6v95.3c0 24.8 20.2 44.9 44.9 44.9h450.8c24.8 0 44.9-20.2 44.9-44.9V592c0-6.4-3.9-12.2-9.8-14.6-26.2-10.9-43.1-36.2-43.1-64.5 0-28.3 16.9-53.7 43.1-64.5 5.9-2.5 9.8-8.2 9.8-14.6v-95.3c0-24.8-20.2-44.9-44.9-44.9H286.4c-24.8 0-44.9 20.2-44.9 44.9v95.3c0 6.4 3.9 12.2 9.8 14.6 26.2 10.9 43.1 36.2 43.1 64.5-0.1 28.3-17 53.6-43.2 64.5z m169.7-158.1c0.8-14.5 9-22.6 24.3-24.3 7.7 0.9 14.1 4.3 19.2 10.3l47.4 67.9 47.4-67.9c4.3-6 10.7-9.4 19.2-10.3 14.5 1.7 22.6 9.8 24.3 24.3 0 6-1.7 10.7-5.1 14.1l-41 57.7h26.9c8.5 1.7 13.7 6.4 15.4 14.1-0.9 9.4-6 14.1-15.4 14.1h-47.4v21.8h47.4c8.5 1.7 13.7 6.4 15.4 14.1-0.9 9.4-6 14.1-15.4 14.1h-47.4V609c-0.9 14.5-9 21.8-24.3 21.8-16.2 0-24.3-7.2-24.3-21.8v-39.7h-47.4c-10.2 0-15.4-4.7-15.4-14.1 0.8-7.7 6-12.4 15.4-14.1h47.4v-21.8h-47.4c-10.2 0-15.4-4.7-15.4-14.1 0.8-7.7 6-12.4 15.4-14.1H467l-41-57.7c-4.2-3.4-6-8.1-5.1-14.1z" fill="#FFD524" p-id="954"></path><path d="M467 491.1h-26.9c-9.4 1.7-14.5 6.4-15.4 14.1 0 9.4 5.1 14.1 15.4 14.1h47.4v21.8h-47.4c-9.4 1.7-14.5 6.4-15.4 14.1 0 9.4 5.1 14.1 15.4 14.1h47.4V609c0 14.5 8.1 21.8 24.3 21.8 15.4 0 23.5-7.2 24.3-21.8v-39.7h47.4c9.4 0 14.5-4.7 15.4-14.1-1.7-7.7-6.8-12.4-15.4-14.1h-47.4v-21.8h47.4c9.4 0 14.5-4.7 15.4-14.1-1.7-7.7-6.8-12.4-15.4-14.1h-26.9l41-57.7c3.4-3.4 5.1-8.1 5.1-14.1-1.7-14.5-9.8-22.6-24.3-24.3-8.5 0.9-15 4.3-19.2 10.3l-47.4 67.9-47.4-67.9c-5.1-6-11.5-9.4-19.2-10.3-15.4 1.7-23.5 9.8-24.3 24.3-0.9 6 0.8 10.7 5.1 14.1l41 57.7zM782.1 839.7h-30.7c-11.1 0-20.1 9-20.1 20.1 0 11.1 9 20.1 20.1 20.1h30.7c11.1 0 20.1-9 20.1-20.1 0-11.1-9-20.1-20.1-20.1z" fill="#6B400D" p-id="955"></path><path d="M931.5 429.4c16.9-7 27.9-23.4 27.9-41.7V236.9c0-50.3-40.9-91.2-91.2-91.2H155.4c-50.3 0-91.2 40.9-91.2 91.2v150.8c0 18.3 10.9 34.7 27.9 41.7 33.9 14 55.7 46.8 55.7 83.4 0 36.6-21.9 69.4-55.7 83.4-16.9 7-27.9 23.4-27.9 41.7v150.8c0 50.3 40.9 91.2 91.2 91.2h510c11.1 0 20.1-9 20.1-20.1 0-11.1-9-20.1-20.1-20.1h-510c-28.1 0-50.9-22.8-50.9-50.9V638c0-2 1.2-3.8 3.1-4.6 48.9-20.3 80.6-67.6 80.6-120.6s-31.6-100.3-80.6-120.6c-1.9-0.8-3-2.6-3-4.6V236.9c0-28.1 22.8-50.9 50.9-50.9h712.8c28.1 0 50.9 22.8 50.9 50.9v150.8c0 2-1.2 3.8-3 4.6-48.9 20.3-80.6 67.6-80.6 120.6s31.6 100.3 80.5 120.6c1.9 0.8 3.1 2.6 3.1 4.6v150.8c0 11.1 9 20.1 20.1 20.1 11.1 0 20.1-9 20.1-20.1V638c0-18.3-10.9-34.7-27.9-41.7-33.9-14-55.7-46.8-55.7-83.4s21.8-69.4 55.7-83.5zM854.8 839.7h-1.7c-11.1 0-20.1 9-20.1 20.1 0 11.1 9 20.1 20.1 20.1h1.7c11.1 0 20.1-9 20.1-20.1 0-11.1-9-20.1-20.1-20.1z" fill="#6B400D" p-id="956"></path></svg>